<svg version="1.1" xmlns="http://www.w3.org/2000/svg" viewBox="0 0 2438.039710850556 1407.0758754697854" width="7314.1191325516675" height="4221.227626409356">
  <!-- svg-source:excalidraw -->
  
  <defs>
    <style class="style-fonts">
      @font-face {
        font-family: "Virgil";
        src: url("https://excalidraw.com/Virgil.woff2");
      }
      @font-face {
        font-family: "Cascadia";
        src: url("https://excalidraw.com/Cascadia.woff2");
      }
      @font-face {
        font-family: "Assistant";
        src: url("https://excalidraw.com/Assistant-Regular.woff2");
      }
    </style>
    
  </defs>
  <rect x="0" y="0" width="2438.039710850556" height="1407.0758754697854" fill="#ffffff"></rect><g stroke-linecap="round" transform="translate(10 482.0815059335729) rotate(0 89.59383694108669 92.02214946841761)"><path d="M32 0 C75.78 1.06, 122.85 -1.61, 147.19 0 M32 0 C64.08 0.56, 96.13 -0.03, 147.19 0 M147.19 0 C168.14 1.38, 177.25 11.67, 179.19 32 M147.19 0 C169 -2.21, 178.51 8.63, 179.19 32 M179.19 32 C179.89 71.1, 178.85 109.6, 179.19 152.04 M179.19 32 C178.91 59.91, 178.9 86.23, 179.19 152.04 M179.19 152.04 C180.5 171.57, 169.21 185.84, 147.19 184.04 M179.19 152.04 C177.63 174.49, 167.17 185.65, 147.19 184.04 M147.19 184.04 C115.96 183.96, 81.21 183.94, 32 184.04 M147.19 184.04 C112.27 183.24, 79.54 183.28, 32 184.04 M32 184.04 C10.86 185.87, 1.32 171.57, 0 152.04 M32 184.04 C12.94 182.83, -1.4 173.18, 0 152.04 M0 152.04 C-0.56 109.43, -0.94 68.2, 0 32 M0 152.04 C-0.01 115.87, 1.4 78.29, 0 32 M0 32 C-1.71 9.47, 12.06 0.29, 32 0 M0 32 C1.51 10.27, 12.51 0.83, 32 0" stroke="#1e1e1e" stroke-width="1" fill="none"></path></g><g transform="translate(87.00384060319607 561.6036554019904) rotate(0 12.589996337890625 12.5)"><text x="12.589996337890625" y="0" font-family="Virgil, Segoe UI Emoji" font-size="20px" fill="#1e1e1e" text-anchor="middle" style="white-space: pre;" direction="ltr" dominant-baseline="text-before-edge">UI</text></g><g stroke-linecap="round" transform="translate(708.0608201115912 341.4238148436439) rotate(0 94.1729854462319 94.68231341675414)"><path d="M32 0 C67.18 1.63, 99.7 2.16, 156.35 0 M32 0 C64.54 1.2, 98.12 -0.54, 156.35 0 M156.35 0 C179.45 1.93, 187.56 11.24, 188.35 32 M156.35 0 C179.92 -1.53, 189.24 10.17, 188.35 32 M188.35 32 C189.22 72.76, 188.75 115.82, 188.35 157.36 M188.35 32 C188.51 74.4, 187.44 115.19, 188.35 157.36 M188.35 157.36 C189.98 180.45, 178.27 190.04, 156.35 189.36 M188.35 157.36 C186.06 177.08, 176.28 191.41, 156.35 189.36 M156.35 189.36 C120.47 190.53, 82.27 191.13, 32 189.36 M156.35 189.36 C111.08 189.5, 62.97 189.69, 32 189.36 M32 189.36 C10.26 189.08, 0.52 180.04, 0 157.36 M32 189.36 C12.74 189.15, 0.43 176.79, 0 157.36 M0 157.36 C-2.08 125.79, -1.9 91.08, 0 32 M0 157.36 C0.39 120.88, 1.08 82.31, 0 32 M0 32 C0.7 10.37, 12.33 1.91, 32 0 M0 32 C-0.54 9.65, 12.17 1.7, 32 0" stroke="#1e1e1e" stroke-width="1" fill="none"></path></g><g transform="translate(783.6138180700301 423.60612826039807) rotate(0 18.61998748779297 12.5)"><text x="18.61998748779297" y="0" font-family="Virgil, Segoe UI Emoji" font-size="20px" fill="#1e1e1e" text-anchor="middle" style="white-space: pre;" direction="ltr" dominant-baseline="text-before-edge">API</text></g><g stroke-linecap="round" transform="translate(709.9124656398941 619.5545218205486) rotate(0 94.1729854462319 94.68231341675414)"><path d="M32 0 C57.09 1.35, 83.21 0.76, 156.35 0 M32 0 C78.4 -0.51, 124.28 -0.45, 156.35 0 M156.35 0 C176.31 0.7, 188.15 11.57, 188.35 32 M156.35 0 C178.46 -1.51, 189.12 10.62, 188.35 32 M188.35 32 C190.57 56.72, 189.81 82.63, 188.35 157.36 M188.35 32 C187.85 78.03, 188.64 123.4, 188.35 157.36 M188.35 157.36 C186.63 180.56, 177.59 187.86, 156.35 189.36 M188.35 157.36 C187.73 179.01, 179.15 188.4, 156.35 189.36 M156.35 189.36 C127.37 188.93, 101.26 189.59, 32 189.36 M156.35 189.36 C129.86 188.69, 102.32 189.86, 32 189.36 M32 189.36 C10.39 189.28, -0.21 178.29, 0 157.36 M32 189.36 C11.03 190.1, 0.67 177.69, 0 157.36 M0 157.36 C0.76 126.88, -0.24 99.85, 0 32 M0 157.36 C-1.62 124.83, -0.25 93.76, 0 32 M0 32 C0.02 9.97, 12.62 -1.82, 32 0 M0 32 C1.37 12.25, 12.92 -1.16, 32 0" stroke="#1e1e1e" stroke-width="1" fill="none"></path></g><g transform="translate(771.6554812985283 701.7368352373028) rotate(0 32.429969787597656 12.5)"><text x="32.429969787597656" y="0" font-family="Virgil, Segoe UI Emoji" font-size="20px" fill="#1e1e1e" text-anchor="middle" style="white-space: pre;" direction="ltr" dominant-baseline="text-before-edge">SQLite</text></g><g stroke-linecap="round" transform="translate(584.7683251782552 265.0045472270475) rotate(0 224.58603594775695 317.87083370155074)"><path d="M32 0 C122.45 -2.36, 214.52 -3.07, 417.17 0 M32 0 C182.15 1.88, 333.06 2.12, 417.17 0 M417.17 0 C438.06 -0.04, 450.21 11.72, 449.17 32 M417.17 0 C439.46 1.03, 448.32 10.08, 449.17 32 M449.17 32 C450.26 245.74, 449.73 461.33, 449.17 603.74 M449.17 32 C449.34 254.52, 449.14 477.31, 449.17 603.74 M449.17 603.74 C449.28 625.41, 438.67 634.07, 417.17 635.74 M449.17 603.74 C450.38 624.31, 436.27 635.05, 417.17 635.74 M417.17 635.74 C278.19 638.08, 136.61 638.43, 32 635.74 M417.17 635.74 C264.94 636.17, 111.85 637, 32 635.74 M32 635.74 C11.57 634.41, -1.05 626.82, 0 603.74 M32 635.74 C9.14 634.31, 0.34 624.88, 0 603.74 M0 603.74 C1.47 407.17, 0.6 211.67, 0 32 M0 603.74 C-1.73 443.32, -2.24 281.85, 0 32 M0 32 C0.82 9.28, 10.39 -1.51, 32 0 M0 32 C1.69 10.59, 12.05 1.28, 32 0" stroke="#1e1e1e" stroke-width="1" fill="none"></path></g><g stroke-linecap="round" transform="translate(1659.0697477390513 290.52452898358547) rotate(0 107.81781111044802 100.99638608809687)"><path d="M32 0 C64.94 -0.46, 93.76 0.06, 183.64 0 M32 0 C79.17 -0.17, 126.2 1.19, 183.64 0 M183.64 0 C206.54 0.78, 213.68 9.39, 215.64 32 M183.64 0 C205.73 -1.39, 214.29 11.74, 215.64 32 M215.64 32 C215.17 77.65, 214.95 125.1, 215.64 169.99 M215.64 32 C216.41 68.93, 215.82 104.64, 215.64 169.99 M215.64 169.99 C217.22 193.26, 204.29 202.49, 183.64 201.99 M215.64 169.99 C214.97 189.89, 205.23 200.48, 183.64 201.99 M183.64 201.99 C129.81 200.15, 78.29 201.54, 32 201.99 M183.64 201.99 C141.08 201.42, 97.47 201.08, 32 201.99 M32 201.99 C8.98 202.04, 1.3 191.15, 0 169.99 M32 201.99 C9.73 203.78, 1.44 190.49, 0 169.99 M0 169.99 C-0.99 130.99, 0.94 94.32, 0 32 M0 169.99 C-0.2 116.3, -0.39 61.97, 0 32 M0 32 C-1.17 12.23, 11.17 0.73, 32 0 M0 32 C-0.1 9.26, 9.85 -0.21, 32 0" stroke="#1e1e1e" stroke-width="1" fill="none"></path></g><g transform="translate(1719.7176064569212 379.02091507168234) rotate(0 47.169952392578125 12.5)"><text x="47.169952392578125" y="0" font-family="Virgil, Segoe UI Emoji" font-size="20px" fill="#1e1e1e" text-anchor="middle" style="white-space: pre;" direction="ltr" dominant-baseline="text-before-edge">Controller</text></g><g stroke-linecap="round" transform="translate(1976.342918129753 285.4791529603825) rotate(0 107.81781111044802 100.99638608809687)"><path d="M32 0 C80.59 -1.32, 129.82 -0.89, 183.64 0 M32 0 C70.77 0.54, 110.66 2.12, 183.64 0 M183.64 0 C206.1 -0.14, 217.33 12.24, 215.64 32 M183.64 0 C206.1 1.39, 217.55 12.33, 215.64 32 M215.64 32 C214.43 82.55, 216.44 131.37, 215.64 169.99 M215.64 32 C214.74 78.17, 215.33 123.33, 215.64 169.99 M215.64 169.99 C216.26 191.99, 206.61 201.92, 183.64 201.99 M215.64 169.99 C214.9 192.38, 206.55 202.43, 183.64 201.99 M183.64 201.99 C138.04 202.43, 91.01 199.88, 32 201.99 M183.64 201.99 C149.74 199.71, 116.58 200.4, 32 201.99 M32 201.99 C10.89 202.38, 0.94 189.88, 0 169.99 M32 201.99 C11.41 200.78, 2.14 189.46, 0 169.99 M0 169.99 C-1.38 113.34, -0.13 61.43, 0 32 M0 169.99 C0.48 120.48, 0.04 70.74, 0 32 M0 32 C-1.23 12.42, 10.53 1.73, 32 0 M0 32 C0.62 9.66, 10.97 0.93, 32 0" stroke="#1e1e1e" stroke-width="1" fill="none"></path></g><g transform="translate(2061.0807579267243 373.9755390484794) rotate(0 23.079971313476562 12.5)"><text x="23.079971313476562" y="0" font-family="Virgil, Segoe UI Emoji" font-size="20px" fill="#1e1e1e" text-anchor="middle" style="white-space: pre;" direction="ltr" dominant-baseline="text-before-edge">redis</text></g><g stroke-linecap="round" transform="translate(1592.7073414841584 232.53867735001938) rotate(0 341.140891555846 165.57373012535825)"><path d="M32 0 C207.16 1.85, 380.51 2.43, 650.28 0 M32 0 C231.43 2.24, 430.41 1.92, 650.28 0 M650.28 0 C672.36 0.44, 683.87 11.22, 682.28 32 M650.28 0 C670.64 1.35, 682.74 12.62, 682.28 32 M682.28 32 C683.12 127.35, 683.35 222.53, 682.28 299.15 M682.28 32 C680.56 93.74, 681.59 156.66, 682.28 299.15 M682.28 299.15 C682.6 320.66, 670.31 329.43, 650.28 331.15 M682.28 299.15 C683.67 318.51, 673.62 330.7, 650.28 331.15 M650.28 331.15 C432.86 332.3, 214.17 331.52, 32 331.15 M650.28 331.15 C421.43 330.29, 192.46 330.78, 32 331.15 M32 331.15 C11.61 330.89, 1.91 320.87, 0 299.15 M32 331.15 C11.51 329.99, 0.28 321.68, 0 299.15 M0 299.15 C0.09 217.26, 1.07 136.49, 0 32 M0 299.15 C-0.14 243.22, -1.55 186.76, 0 32 M0 32 C-0.61 9.57, 10.11 -1.81, 32 0 M0 32 C-0.72 10.88, 11.78 -1.79, 32 0" stroke="#1e1e1e" stroke-width="1" fill="none"></path></g><g stroke-linecap="round" transform="translate(1589.5988838284893 1039.3623954088825) rotate(0 105.6850320333973 110.5394747801098)"><path d="M32 0 C76.37 -0.17, 120.19 -1.98, 179.37 0 M32 0 C73 -1.34, 112.05 -1.32, 179.37 0 M179.37 0 C199.17 1.42, 210.56 11.92, 211.37 32 M179.37 0 C198.75 -2.16, 211.11 12, 211.37 32 M211.37 32 C208.6 78.84, 211.29 125.14, 211.37 189.08 M211.37 32 C212.02 70.55, 210.86 108.29, 211.37 189.08 M211.37 189.08 C209.58 210.14, 200.43 219.87, 179.37 221.08 M211.37 189.08 C211.21 210.81, 199.19 219.34, 179.37 221.08 M179.37 221.08 C145.7 222.85, 115.65 222.73, 32 221.08 M179.37 221.08 C124 221.31, 70.71 221.98, 32 221.08 M32 221.08 C9.22 222.15, 1.02 211.51, 0 189.08 M32 221.08 C11.87 222.69, 0.86 209.28, 0 189.08 M0 189.08 C-3.01 156.13, -1.11 118.59, 0 32 M0 189.08 C-2.12 144.03, -1.83 98.66, 0 32 M0 32 C-0.87 10.45, 8.93 -0.05, 32 0 M0 32 C-1.61 11.23, 8.7 -0.72, 32 0" stroke="#1e1e1e" stroke-width="1" fill="none"></path></g><g transform="translate(1647.1204408252652 1131.653113777469) rotate(0 48.163475036621094 18.24875641152346)"><text x="48.163475036621094" y="0" font-family="Virgil, Segoe UI Emoji" font-size="29.19801025843747px" fill="#1e1e1e" text-anchor="middle" style="white-space: pre;" direction="ltr" dominant-baseline="text-before-edge">Docker</text></g><g stroke-linecap="round" transform="translate(1467.4663729051808 839.4244754681408) rotate(0 194.73155272562008 239.8907437228945)"><path d="M32 0 C145.37 0.42, 258.09 -1.96, 357.46 0 M32 0 C135.35 -0.39, 236.89 -0.64, 357.46 0 M357.46 0 C380.08 -0.03, 391.28 12.2, 389.46 32 M357.46 0 C380.3 0.59, 390.96 12.4, 389.46 32 M389.46 32 C392.7 189.54, 390.95 346.34, 389.46 447.78 M389.46 32 C389.81 158.27, 390.6 284.11, 389.46 447.78 M389.46 447.78 C389.86 467.16, 378.79 478, 357.46 479.78 M389.46 447.78 C391.74 470.36, 381.06 477.69, 357.46 479.78 M357.46 479.78 C264.27 482.06, 169.59 480.66, 32 479.78 M357.46 479.78 C257.39 481.97, 158.94 481.98, 32 479.78 M32 479.78 C9.12 479.81, -1.66 469.6, 0 447.78 M32 479.78 C11.51 478.89, 1.52 469.96, 0 447.78 M0 447.78 C1.92 282.93, 1.26 117.02, 0 32 M0 447.78 C1.11 356.54, 0.79 264.63, 0 32 M0 32 C0.77 12.24, 10.39 -0.58, 32 0 M0 32 C0.02 10.06, 9.94 1.31, 32 0" stroke="#1e1e1e" stroke-width="1" fill="none"></path></g><g transform="translate(1498.6995401838376 803.7161254733885) rotate(0 20.29998779296875 12.5)"><text x="0" y="0" font-family="Virgil, Segoe UI Emoji" font-size="20px" fill="#1e1e1e" text-anchor="start" style="white-space: pre;" direction="ltr" dominant-baseline="text-before-edge">EC2</text></g><g stroke-linecap="round" transform="translate(468.214284619356 57.0843655150216) rotate(0 979.9127131155999 669.9957549773819)"><path d="M32 0 C497.95 -5.55, 963.73 -5.49, 1927.83 0 M1927.83 0 C1950.99 -1.79, 1961.12 9.26, 1959.83 32 M1959.83 32 C1962.62 371.6, 1961.17 712.11, 1959.83 1307.99 M1959.83 1307.99 C1960.89 1330.69, 1947.2 1340.49, 1927.83 1339.99 M1927.83 1339.99 C1503.39 1339.55, 1079.81 1339.4, 32 1339.99 M32 1339.99 C10.08 1341.14, -0.8 1331.13, 0 1307.99 M0 1307.99 C-2.5 935.28, -2.37 562.17, 0 32 M0 32 C0.99 10.55, 12.03 1.11, 32 0" stroke="#1e1e1e" stroke-width="1.5" fill="none" stroke-dasharray="1.5 7"></path></g><g transform="translate(521.8260265368516 10) rotate(0 20.099990844726562 12.5)"><text x="0" y="0" font-family="Virgil, Segoe UI Emoji" font-size="20px" fill="#1e1e1e" text-anchor="start" style="white-space: pre;" direction="ltr" dominant-baseline="text-before-edge">AWS</text></g><g stroke-linecap="round"><g transform="translate(198.6873348385176 572.0171761858053) rotate(0 241.05147997364224 -56.77475079118847)"><path d="M0.54 -0.48 C80.92 -19.31, 401.36 -94.72, 481.5 -113.62 M-0.64 -1.77 C80.21 -20.35, 403.13 -93.63, 483.89 -112.11" stroke="#1e1e1e" stroke-width="1" fill="none"></path></g><g transform="translate(198.6873348385176 572.0171761858053) rotate(0 241.05147997364224 -56.77475079118847)"><path d="M462.89 -98.56 C467.08 -102.83, 472.67 -106.17, 483.89 -112.11 M462.89 -98.56 C469.27 -102.17, 474.15 -106.29, 483.89 -112.11" stroke="#1e1e1e" stroke-width="1" fill="none"></path></g><g transform="translate(198.6873348385176 572.0171761858053) rotate(0 241.05147997364224 -56.77475079118847)"><path d="M459.09 -115.23 C464.08 -115.62, 470.56 -115.07, 483.89 -112.11 M459.09 -115.23 C466.43 -114.28, 472.35 -113.82, 483.89 -112.11" stroke="#1e1e1e" stroke-width="1" fill="none"></path></g></g><mask></mask><g stroke-linecap="round"><g transform="translate(916.583868670676 371.4528810753497) rotate(0 362.59671656605326 0)"><path d="M0.25 -0.4 C121.06 -0.56, 605.31 -1.3, 726.04 -1.1 M-1.07 -1.66 C119.55 -1.7, 604.76 -0.23, 725.54 -0.14" stroke="#1e1e1e" stroke-width="1" fill="none"></path></g><g transform="translate(916.583868670676 371.4528810753497) rotate(0 362.59671656605326 0)"><path d="M702.03 8.36 C710.77 6.33, 719 0.61, 725.54 -0.14 M702.03 8.36 C710.59 5.56, 719.34 2.66, 725.54 -0.14" stroke="#1e1e1e" stroke-width="1" fill="none"></path></g><g transform="translate(916.583868670676 371.4528810753497) rotate(0 362.59671656605326 0)"><path d="M702.07 -8.74 C710.77 -3.94, 718.99 -2.82, 725.54 -0.14 M702.07 -8.74 C710.59 -5.29, 719.33 -1.94, 725.54 -0.14" stroke="#1e1e1e" stroke-width="1" fill="none"></path></g></g><mask></mask><g stroke-linecap="round"><g transform="translate(1629.6665084725873 460.99514345942424) rotate(0 -355.4477266016265 0)"><path d="M-0.01 0.47 C-118.61 0.3, -593.3 -0.11, -711.79 -0.27 M-1.48 -0.33 C-119.68 -0.38, -591.17 0.98, -709.54 1.12" stroke="#1e1e1e" stroke-width="1" fill="none"></path></g><g transform="translate(1629.6665084725873 460.99514345942424) rotate(0 -355.4477266016265 0)"><path d="M-686.07 -7.48 C-691.81 -6.56, -699.62 -2.73, -709.54 1.12 M-686.07 -7.48 C-691.83 -6, -697.59 -1.96, -709.54 1.12" stroke="#1e1e1e" stroke-width="1" fill="none"></path></g><g transform="translate(1629.6665084725873 460.99514345942424) rotate(0 -355.4477266016265 0)"><path d="M-686.03 9.63 C-691.89 5.76, -699.7 4.8, -709.54 1.12 M-686.03 9.63 C-691.95 6.71, -697.72 6.35, -709.54 1.12" stroke="#1e1e1e" stroke-width="1" fill="none"></path></g></g><mask></mask><g stroke-linecap="round"><g transform="translate(1725.9326933757748 515.9400187376325) rotate(0 1.2277655194343424 149.0721842229359)"><path d="M-0.93 1.04 C-0.45 50.98, 1.18 249.85, 1.87 299.21 M0.79 0.55 C1.75 50.21, 3.93 248.07, 4.27 297.64" stroke="#1e1e1e" stroke-width="1" fill="none"></path></g><g transform="translate(1725.9326933757748 515.9400187376325) rotate(0 1.2277655194343424 149.0721842229359)"><path d="M-4.5 274.23 C-0.93 278.42, 1.01 285.73, 4.27 297.64 M-4.5 274.23 C-2.38 278.99, -1.4 285.23, 4.27 297.64" stroke="#1e1e1e" stroke-width="1" fill="none"></path></g><g transform="translate(1725.9326933757748 515.9400187376325) rotate(0 1.2277655194343424 149.0721842229359)"><path d="M12.6 274.07 C12.45 278.16, 10.67 285.51, 4.27 297.64 M12.6 274.07 C10.98 278.8, 8.23 285.08, 4.27 297.64" stroke="#1e1e1e" stroke-width="1" fill="none"></path></g></g><mask></mask></svg>