<svg version="1.1" xmlns="http://www.w3.org/2000/svg" viewBox="0 0 1462.0879190562537 1000.854801389185" width="4386.263757168761" height="3002.564404167555">
  <!-- svg-source:excalidraw -->
  
  <defs>
    <style class="style-fonts">
      @font-face {
        font-family: "Virgil";
        src: url("https://excalidraw.com/Virgil.woff2");
      }
      @font-face {
        font-family: "Cascadia";
        src: url("https://excalidraw.com/Cascadia.woff2");
      }
      @font-face {
        font-family: "Assistant";
        src: url("https://excalidraw.com/Assistant-Regular.woff2");
      }
    </style>
    
  </defs>
  <rect x="0" y="0" width="1462.0879190562537" height="1000.854801389185" fill="#ffffff"></rect><g stroke-linecap="round" transform="translate(10 80.4535601078442) rotate(0 648.2573808903894 455.2006206406704)"><path d="M32 0 C511.58 -2.39, 990.27 -2.3, 1264.51 0 M32 0 C379.15 1.24, 727.35 1.36, 1264.51 0 M1264.51 0 C1286.53 1.78, 1298.05 11.58, 1296.51 32 M1264.51 0 C1284.43 0.68, 1296.79 12.26, 1296.51 32 M1296.51 32 C1295.65 225.78, 1294.74 418.61, 1296.51 878.4 M1296.51 32 C1293.47 311.58, 1293.64 591.45, 1296.51 878.4 M1296.51 878.4 C1295.7 898.41, 1285.52 912.13, 1264.51 910.4 M1296.51 878.4 C1295.1 897.47, 1283.94 908.32, 1264.51 910.4 M1264.51 910.4 C808 909.69, 352.03 908.4, 32 910.4 M1264.51 910.4 C963.86 906.57, 663.34 906.58, 32 910.4 M32 910.4 C11.55 910.54, -0.94 897.81, 0 878.4 M32 910.4 C12.97 909.7, 0.42 898.5, 0 878.4 M0 878.4 C3.45 606.34, 3.72 335.79, 0 32 M0 878.4 C-2.05 664.53, -2.16 449.82, 0 32 M0 32 C-0.32 9.07, 12 0.24, 32 0 M0 32 C-1.44 9.62, 10.9 -2.09, 32 0" stroke="#1e1e1e" stroke-width="1" fill="none"></path></g><g transform="translate(35.928149789039935 40.018480802819454) rotate(0 20.099990844726562 12.500000000000014)"><text x="0" y="17.52" font-family="Virgil, Segoe UI Emoji" font-size="20px" fill="#1e1e1e" text-anchor="start" style="white-space: pre;" direction="ltr" dominant-baseline="alphabetic">AWS</text></g><g stroke-linecap="round" transform="translate(71.41754416743402 159.24566671167892) rotate(0 463.5887096177154 272.25488179419915)"><path d="M32 0 C365.43 1.75, 698.3 1.85, 895.18 0 M32 0 C218.36 -2.37, 404.87 -2.57, 895.18 0 M895.18 0 C918.42 -1.49, 927.59 12.01, 927.18 32 M895.18 0 C916.01 0.56, 928.81 12.25, 927.18 32 M927.18 32 C926.51 166.23, 926.69 300.99, 927.18 512.51 M927.18 32 C926.2 149.93, 926.27 266.87, 927.18 512.51 M927.18 512.51 C926.52 532.14, 918.29 544.02, 895.18 544.51 M927.18 512.51 C928.33 533.29, 917.27 544.74, 895.18 544.51 M895.18 544.51 C617.14 543.69, 341.09 543.71, 32 544.51 M895.18 544.51 C715.72 545.99, 536.22 546.12, 32 544.51 M32 544.51 C11.92 545.05, 1.82 535.37, 0 512.51 M32 544.51 C9.61 543.77, 1.29 532.15, 0 512.51 M0 512.51 C-1.77 405.01, -0.53 297.25, 0 32 M0 512.51 C1.1 394.97, 0.55 277.58, 0 32 M0 32 C0.09 11.79, 9.99 0.7, 32 0 M0 32 C-0.13 11.59, 9.63 0.82, 32 0" stroke="#1e1e1e" stroke-width="1" fill="none"></path></g><g transform="translate(102.27268800082129 118.95710310757457) rotate(0 18.949989318847656 12.5)"><text x="0" y="17.52" font-family="Virgil, Segoe UI Emoji" font-size="20px" fill="#1e1e1e" text-anchor="start" style="white-space: pre;" direction="ltr" dominant-baseline="alphabetic">EKS</text></g><g stroke-linecap="round" transform="translate(466.1594857970381 191.789736610787) rotate(0 52.700634799820136 50.6401449996406)"><path d="M25.32 0 C38.35 0.44, 47.4 0.89, 80.08 0 M25.32 0 C46.25 0.16, 67.38 0.21, 80.08 0 M80.08 0 C97.11 1.07, 103.52 8.91, 105.4 25.32 M80.08 0 C96.14 -1.96, 104.23 6.2, 105.4 25.32 M105.4 25.32 C104.05 38.97, 105.23 51.43, 105.4 75.96 M105.4 25.32 C105.41 41.68, 105.24 56.54, 105.4 75.96 M105.4 75.96 C103.6 93.65, 96.28 99.99, 80.08 101.28 M105.4 75.96 C103.22 90.61, 96.71 100.05, 80.08 101.28 M80.08 101.28 C66.91 99.07, 51.5 101.45, 25.32 101.28 M80.08 101.28 C64.02 100.35, 49.28 100.7, 25.32 101.28 M25.32 101.28 C8.67 103.05, -0.11 92.74, 0 75.96 M25.32 101.28 C8.11 102, 1.21 94.4, 0 75.96 M0 75.96 C0.53 62.06, 1.13 47.28, 0 25.32 M0 75.96 C0.48 63.05, -0.78 50.9, 0 25.32 M0 25.32 C-0.55 9.09, 8.4 -1.46, 25.32 0 M0 25.32 C1.45 9.82, 9.58 -2.06, 25.32 0" stroke="#1e1e1e" stroke-width="1" fill="none"></path></g><g transform="translate(496.70013982293244 229.9298816104276) rotate(0 22.15998077392578 12.5)"><text x="22.15998077392578" y="17.52" font-family="Virgil, Segoe UI Emoji" font-size="20px" fill="#1e1e1e" text-anchor="middle" style="white-space: pre;" direction="ltr" dominant-baseline="alphabetic">nginx</text></g><g stroke-linecap="round" transform="translate(199.4442814984036 354.6114216702706) rotate(0 52.700634799820136 50.6401449996406)"><path d="M25.32 0 C37.49 -0.83, 46.78 0.99, 80.08 0 M25.32 0 C36.5 -0.24, 50.39 0.93, 80.08 0 M80.08 0 C97.74 0.88, 105.53 8.49, 105.4 25.32 M80.08 0 C95.32 0.29, 107.2 9.41, 105.4 25.32 M105.4 25.32 C104.18 42.41, 104.89 60.91, 105.4 75.96 M105.4 25.32 C105.5 39.84, 105.62 54.43, 105.4 75.96 M105.4 75.96 C105.53 93.21, 95.75 99.96, 80.08 101.28 M105.4 75.96 C105.92 93.13, 98.89 99.89, 80.08 101.28 M80.08 101.28 C68.97 100.93, 58.54 100.06, 25.32 101.28 M80.08 101.28 C63.48 101.63, 48.3 100.29, 25.32 101.28 M25.32 101.28 C9.91 100.16, -1.79 91.73, 0 75.96 M25.32 101.28 C9.58 101.76, 1.91 90.96, 0 75.96 M0 75.96 C-0.22 55.46, -0.11 37.82, 0 25.32 M0 75.96 C-0.45 64.6, 0.12 55.11, 0 25.32 M0 25.32 C1.88 7.08, 6.55 0, 25.32 0 M0 25.32 C-1.61 6.28, 9.21 2.16, 25.32 0" stroke="#1e1e1e" stroke-width="1" fill="none"></path></g><g transform="translate(229.98493552429795 392.7515666699112) rotate(0 22.15998077392578 12.5)"><text x="22.15998077392578" y="17.52" font-family="Virgil, Segoe UI Emoji" font-size="20px" fill="#1e1e1e" text-anchor="middle" style="white-space: pre;" direction="ltr" dominant-baseline="alphabetic">nginx</text></g><g stroke-linecap="round" transform="translate(199.79434981020677 503.0710936217972) rotate(0 52.700634799820136 50.6401449996406)"><path d="M25.32 0 C47.61 -1.82, 68.17 -0.07, 80.08 0 M25.32 0 C42.6 0.27, 59.43 0.43, 80.08 0 M80.08 0 C95.75 0.08, 103.93 7.34, 105.4 25.32 M80.08 0 C96.73 -1.32, 103.68 9.63, 105.4 25.32 M105.4 25.32 C105.21 38.82, 104.3 50.3, 105.4 75.96 M105.4 25.32 C105.83 36.16, 105.74 48.1, 105.4 75.96 M105.4 75.96 C105.87 91.13, 97.19 101.93, 80.08 101.28 M105.4 75.96 C106.48 92.65, 95.91 99.44, 80.08 101.28 M80.08 101.28 C64.93 101.09, 47 100.07, 25.32 101.28 M80.08 101.28 C61.02 101.88, 42.58 101.76, 25.32 101.28 M25.32 101.28 C7.47 100.92, -1.89 92.16, 0 75.96 M25.32 101.28 C6.51 99.1, -0.47 90.71, 0 75.96 M0 75.96 C1.85 56.19, 1.28 39.29, 0 25.32 M0 75.96 C-0.6 63.16, 0.57 49.12, 0 25.32 M0 25.32 C1.96 9.9, 9.41 -1.3, 25.32 0 M0 25.32 C-1.1 10.67, 8.81 1.28, 25.32 0" stroke="#1e1e1e" stroke-width="1" fill="none"></path></g><g transform="translate(239.90498827213628 541.2112386214378) rotate(0 12.589996337890625 12.5)"><text x="12.589996337890625" y="17.52" font-family="Virgil, Segoe UI Emoji" font-size="20px" fill="#1e1e1e" text-anchor="middle" style="white-space: pre;" direction="ltr" dominant-baseline="alphabetic">UI</text></g><g stroke-linecap="round" transform="translate(466.45428016487267 375.3106905590263) rotate(0 52.700634799820136 50.6401449996406)"><path d="M25.32 0 C45.42 1.65, 64.9 -0.87, 80.08 0 M25.32 0 C39.7 0.64, 56.24 -0.81, 80.08 0 M80.08 0 C98.6 -0.18, 103.72 6.44, 105.4 25.32 M80.08 0 C97.35 -0.72, 103.26 9.19, 105.4 25.32 M105.4 25.32 C104.7 40.9, 103.62 60.86, 105.4 75.96 M105.4 25.32 C105.34 44.74, 104.72 64.57, 105.4 75.96 M105.4 75.96 C103.77 91.76, 95.38 100.73, 80.08 101.28 M105.4 75.96 C107.29 94.19, 98.3 102.61, 80.08 101.28 M80.08 101.28 C63.86 102.18, 51.81 101.89, 25.32 101.28 M80.08 101.28 C59.79 101.82, 39.07 102.18, 25.32 101.28 M25.32 101.28 C7.45 99.74, -0.07 92.66, 0 75.96 M25.32 101.28 C7.7 102.7, 2.16 93.22, 0 75.96 M0 75.96 C-1.11 56.95, 1.61 36.88, 0 25.32 M0 75.96 C0.59 55.82, 0.94 37.05, 0 25.32 M0 25.32 C-0.64 8.89, 10.03 -1.03, 25.32 0 M0 25.32 C-2.25 10.01, 8.01 -0.04, 25.32 0" stroke="#1e1e1e" stroke-width="1" fill="none"></path></g><g transform="translate(500.53492747689984 413.4508355586669) rotate(0 18.61998748779297 12.5)"><text x="18.61998748779297" y="17.52" font-family="Virgil, Segoe UI Emoji" font-size="20px" fill="#1e1e1e" text-anchor="middle" style="white-space: pre;" direction="ltr" dominant-baseline="alphabetic">API</text></g><g stroke-linecap="round" transform="translate(463.8993956436375 527.299505728229) rotate(0 52.700634799820136 50.6401449996406)"><path d="M25.32 0 C42.24 1.2, 60.58 1.64, 80.08 0 M25.32 0 C39.86 -0.54, 55.09 0.06, 80.08 0 M80.08 0 C96.84 1.69, 107.02 9.74, 105.4 25.32 M80.08 0 C97.24 -0.98, 103.11 10.36, 105.4 25.32 M105.4 25.32 C106.36 45.37, 104.59 64.65, 105.4 75.96 M105.4 25.32 C105.18 38.44, 104.49 49.85, 105.4 75.96 M105.4 75.96 C105.08 93.48, 96.02 101.89, 80.08 101.28 M105.4 75.96 C103.41 91.56, 95.66 100.88, 80.08 101.28 M80.08 101.28 C59.77 101.71, 39.22 100.77, 25.32 101.28 M80.08 101.28 C63.12 101.14, 44.99 101.66, 25.32 101.28 M25.32 101.28 C8.74 100.76, 1.36 93.65, 0 75.96 M25.32 101.28 C10.23 101.88, -1.68 93.67, 0 75.96 M0 75.96 C0.32 58.58, 0.82 36.52, 0 25.32 M0 75.96 C-0.65 58.49, 0.55 40.12, 0 25.32 M0 25.32 C-0.46 8.32, 9.31 -0.18, 25.32 0 M0 25.32 C-0.1 6.45, 9.88 1.67, 25.32 0" stroke="#1e1e1e" stroke-width="1" fill="none"></path></g><g transform="translate(489.77005912998106 565.4396507278695) rotate(0 26.829971313476562 12.5)"><text x="26.829971313476562" y="17.52" font-family="Virgil, Segoe UI Emoji" font-size="20px" fill="#1e1e1e" text-anchor="middle" style="white-space: pre;" direction="ltr" dominant-baseline="alphabetic">sqlite</text></g><g stroke-linecap="round" transform="translate(788.1853466877672 445.6441467071811) rotate(0 52.70063479982002 50.6401449996406)"><path d="M25.32 0 C42.9 -0.23, 59.98 -0.97, 80.08 0 M25.32 0 C42.22 -1.1, 56.95 -0.76, 80.08 0 M80.08 0 C97.28 0.79, 107.09 7.59, 105.4 25.32 M80.08 0 C97.06 0.28, 103.67 9.93, 105.4 25.32 M105.4 25.32 C103.14 43.79, 105.6 65.25, 105.4 75.96 M105.4 25.32 C104.64 42.8, 106.4 60.4, 105.4 75.96 M105.4 75.96 C105.66 91.13, 95.24 101.44, 80.08 101.28 M105.4 75.96 C106.26 93.55, 98.68 100.67, 80.08 101.28 M80.08 101.28 C59.62 101.22, 42.8 100.47, 25.32 101.28 M80.08 101.28 C63.64 100.43, 44.79 101.16, 25.32 101.28 M25.32 101.28 C9.09 102.37, -1.07 93.4, 0 75.96 M25.32 101.28 C10.11 102.72, 1.26 93.3, 0 75.96 M0 75.96 C-0.58 63.45, 0.48 46.25, 0 25.32 M0 75.96 C-0.04 64.31, 0.13 51.52, 0 25.32 M0 25.32 C0.51 10.03, 7.48 0.12, 25.32 0 M0 25.32 C-2.25 6.39, 8.01 -0.73, 25.32 0" stroke="#1e1e1e" stroke-width="1" fill="none"></path></g><g transform="translate(795.1360272639545 483.7842917068217) rotate(0 45.74995422363281 12.5)"><text x="45.74995422363281" y="17.52" font-family="Virgil, Segoe UI Emoji" font-size="20px" fill="#1e1e1e" text-anchor="middle" style="white-space: pre;" direction="ltr" dominant-baseline="alphabetic">controller</text></g><g stroke-linecap="round" transform="translate(1071.5757048948026 189.45116848244734) rotate(0 68.85598031210611 59.42563131605391)"><path d="M29.71 0 C61.49 2.07, 87.69 -1.08, 108 0 M29.71 0 C57.06 -0.44, 83.09 1.1, 108 0 M108 0 C128.08 -1.23, 138.57 9.03, 137.71 29.71 M108 0 C129.23 -0.39, 138.81 10.8, 137.71 29.71 M137.71 29.71 C138.35 44.17, 136.5 56.52, 137.71 89.14 M137.71 29.71 C136.39 49.72, 138.24 69.63, 137.71 89.14 M137.71 89.14 C136.33 108.81, 129.38 117.97, 108 118.85 M137.71 89.14 C137.52 109.97, 127.99 119.83, 108 118.85 M108 118.85 C88.76 119.06, 70.74 118.82, 29.71 118.85 M108 118.85 C76.73 118.17, 47.96 119.58, 29.71 118.85 M29.71 118.85 C8.04 120.2, -0.48 109.63, 0 89.14 M29.71 118.85 C11.7 120.24, 0.42 107.46, 0 89.14 M0 89.14 C0.58 64.38, 1.54 40.74, 0 29.71 M0 89.14 C0.54 68.78, -0.51 47.44, 0 29.71 M0 29.71 C-0.08 11.33, 11.9 0.55, 29.71 0 M0 29.71 C2.23 8.54, 11.51 -1.22, 29.71 0" stroke="#1e1e1e" stroke-width="1" fill="none"></path></g><g transform="translate(1098.661726710815 223.87679979850125) rotate(0 41.76995849609375 25)"><text x="41.76995849609375" y="17.52" font-family="Virgil, Segoe UI Emoji" font-size="20px" fill="#1e1e1e" text-anchor="middle" style="white-space: pre;" direction="ltr" dominant-baseline="alphabetic">secrets </text><text x="41.76995849609375" y="42.519999999999996" font-family="Virgil, Segoe UI Emoji" font-size="20px" fill="#1e1e1e" text-anchor="middle" style="white-space: pre;" direction="ltr" dominant-baseline="alphabetic">manager</text></g><g stroke-linecap="round" transform="translate(603.4279171682242 819.9324580027412) rotate(0 68.85598031210611 59.42563131605391)"><path d="M29.71 0 C49.47 0.71, 64.08 -0.39, 108 0 M29.71 0 C56.95 0.64, 84.69 0.24, 108 0 M108 0 C127.92 -0.96, 137.72 10.62, 137.71 29.71 M108 0 C128.58 0.62, 136.39 10.19, 137.71 29.71 M137.71 29.71 C139.17 49.78, 138.76 69.15, 137.71 89.14 M137.71 29.71 C137.3 52.43, 136.91 77.6, 137.71 89.14 M137.71 89.14 C138.21 107.53, 127.77 119.79, 108 118.85 M137.71 89.14 C139.99 111.2, 127.91 118.38, 108 118.85 M108 118.85 C87.55 121.62, 67.1 118.85, 29.71 118.85 M108 118.85 C90.7 119.03, 70.64 119.11, 29.71 118.85 M29.71 118.85 C8 120.21, -1.19 108.49, 0 89.14 M29.71 118.85 C10.7 119.3, -1.27 106.95, 0 89.14 M0 89.14 C1.48 70.7, -2.13 48.22, 0 29.71 M0 89.14 C-0.26 75.53, -0.3 61.1, 0 29.71 M0 29.71 C-0.05 10.98, 9.49 0.98, 29.71 0 M0 29.71 C-1.37 8.87, 11.28 0.48, 29.71 0" stroke="#1e1e1e" stroke-width="1" fill="none"></path></g><g transform="translate(653.0739136546467 866.858089318795) rotate(0 19.209983825683594 12.5)"><text x="19.209983825683594" y="17.52" font-family="Virgil, Segoe UI Emoji" font-size="20px" fill="#1e1e1e" text-anchor="middle" style="white-space: pre;" direction="ltr" dominant-baseline="alphabetic">SQS</text></g><g stroke-linecap="round" transform="translate(989.5111919134188 789.1905784706837) rotate(0 68.85598031210611 59.42563131605391)"><path d="M29.71 0 C55.12 0.71, 83.15 1.07, 108 0 M29.71 0 C47.17 1.68, 62.82 0.44, 108 0 M108 0 C128.52 1.14, 138.94 9.31, 137.71 29.71 M108 0 C126.78 -0.21, 136.63 8.14, 137.71 29.71 M137.71 29.71 C139.43 49.64, 136.25 68.54, 137.71 89.14 M137.71 29.71 C137.21 44.32, 138.64 59.58, 137.71 89.14 M137.71 89.14 C135.86 108.08, 129.53 120.76, 108 118.85 M137.71 89.14 C135.79 110.45, 127.55 118.6, 108 118.85 M108 118.85 C78.99 117.2, 51.26 118.14, 29.71 118.85 M108 118.85 C81.79 119.28, 57 119.75, 29.71 118.85 M29.71 118.85 C11.06 119.79, -0.17 110.47, 0 89.14 M29.71 118.85 C7.96 120.29, -0.33 108.65, 0 89.14 M0 89.14 C-0.02 66.91, 0.19 50, 0 29.71 M0 89.14 C0.78 69.79, 0.8 51.31, 0 29.71 M0 29.71 C0.58 8.93, 10.9 -0.16, 29.71 0 M0 29.71 C-0.93 9.06, 9.62 -1.22, 29.71 0" stroke="#1e1e1e" stroke-width="1" fill="none"></path></g><g transform="translate(1045.477180465271 836.1162097867375) rotate(0 12.889991760253906 12.5)"><text x="12.889991760253906" y="17.52" font-family="Virgil, Segoe UI Emoji" font-size="20px" fill="#1e1e1e" text-anchor="middle" style="white-space: pre;" direction="ltr" dominant-baseline="alphabetic">S3</text></g><g stroke-linecap="round"><g transform="translate(506.8816586206865 11.034140695445245) rotate(0 -0.0560983203139358 86.04018901720548)"><path d="M0.64 0.01 C0.54 28.57, 0.63 143.01, 0.34 171.66 M-0.48 -1.03 C-0.78 27.68, -0.66 143.95, -0.38 172.98" stroke="#1e1e1e" stroke-width="1" fill="none"></path></g><g transform="translate(506.8816586206865 11.034140695445245) rotate(0 -0.0560983203139358 86.04018901720548)"><path d="M-9.04 149.52 C-5.7 159.07, -3.15 165.48, -0.38 172.98 M-9.04 149.52 C-7.32 156.65, -3.4 162.98, -0.38 172.98" stroke="#1e1e1e" stroke-width="1" fill="none"></path></g><g transform="translate(506.8816586206865 11.034140695445245) rotate(0 -0.0560983203139358 86.04018901720548)"><path d="M8.07 149.44 C4.94 159.12, 1.04 165.55, -0.38 172.98 M8.07 149.44 C4.94 156.54, 4.02 162.9, -0.38 172.98" stroke="#1e1e1e" stroke-width="1" fill="none"></path></g></g><mask></mask><g stroke-linecap="round"><g transform="translate(502.26696201051004 301.60392746258776) rotate(0 -117.57964032068332 19.692949487609667)"><path d="M0.14 0.19 C-39.16 6.57, -197.19 31.85, -236.28 38.56 M-1.24 -0.75 C-40.15 5.74, -195.24 33.1, -234.16 39.66" stroke="#1e1e1e" stroke-width="1" fill="none"></path></g><g transform="translate(502.26696201051004 301.60392746258776) rotate(0 -117.57964032068332 19.692949487609667)"><path d="M-212.47 27.23 C-217.81 28.64, -225.19 35.05, -234.16 39.66 M-212.47 27.23 C-221.39 32.46, -229.53 36.98, -234.16 39.66" stroke="#1e1e1e" stroke-width="1" fill="none"></path></g><g transform="translate(502.26696201051004 301.60392746258776) rotate(0 -117.57964032068332 19.692949487609667)"><path d="M-209.55 44.08 C-215.69 41.08, -223.84 43.07, -234.16 39.66 M-209.55 44.08 C-219.58 42.82, -228.85 40.83, -234.16 39.66" stroke="#1e1e1e" stroke-width="1" fill="none"></path></g></g><mask></mask><g stroke-linecap="round"><g transform="translate(248.57572320629265 467.09397238880933) rotate(0 -0.3829320125779532 15.751432721201752)"><path d="M0.22 -0.24 C0.18 4.88, -0.18 25.78, -0.42 31.05 M-0.33 0.82 C-0.39 5.96, -0.7 26.34, -0.68 31.51" stroke="#1e1e1e" stroke-width="1" fill="none"></path></g><g transform="translate(248.57572320629265 467.09397238880933) rotate(0 -0.3829320125779532 15.751432721201752)"><path d="M-5.97 16.67 C-4.87 21.09, -3.77 23.86, -0.68 31.51 M-5.97 16.67 C-4.57 20.88, -3.05 24.72, -0.68 31.51" stroke="#1e1e1e" stroke-width="1" fill="none"></path></g><g transform="translate(248.57572320629265 467.09397238880933) rotate(0 -0.3829320125779532 15.751432721201752)"><path d="M4.81 16.74 C3.04 21.17, 1.28 23.92, -0.68 31.51 M4.81 16.74 C3.32 20.94, 1.95 24.77, -0.68 31.51" stroke="#1e1e1e" stroke-width="1" fill="none"></path></g></g><mask></mask><g stroke-linecap="round"><g transform="translate(522.2846512830349 303.1063868240403) rotate(0 1.2846210858159566 32.03954782375547)"><path d="M0.64 -0.06 C1.06 10.63, 1.72 54.27, 2.23 65.01 M-0.49 -1.14 C-0.23 9.16, 0.44 52.21, 1.11 63.37" stroke="#1e1e1e" stroke-width="1" fill="none"></path></g><g transform="translate(522.2846512830349 303.1063868240403) rotate(0 1.2846210858159566 32.03954782375547)"><path d="M-8.26 40.19 C-5.61 45.96, -1.39 54.76, 1.11 63.37 M-8.26 40.19 C-4.22 47.84, -2.84 55.37, 1.11 63.37" stroke="#1e1e1e" stroke-width="1" fill="none"></path></g><g transform="translate(522.2846512830349 303.1063868240403) rotate(0 1.2846210858159566 32.03954782375547)"><path d="M8.83 39.6 C6.78 45.62, 6.29 54.58, 1.11 63.37 M8.83 39.6 C7.31 47.34, 3.13 55.07, 1.11 63.37" stroke="#1e1e1e" stroke-width="1" fill="none"></path></g></g><mask></mask><g stroke-linecap="round"><g transform="translate(520.4772479552935 486.655392281075) rotate(0 0.865885727811019 18.702602428936018)"><path d="M-0.3 0.53 C-0.07 6.66, 1.17 30.98, 1.53 37.13 M0.54 0.33 C0.67 6.49, 0.82 31.4, 0.99 37.69" stroke="#1e1e1e" stroke-width="1" fill="none"></path></g><g transform="translate(520.4772479552935 486.655392281075) rotate(0 0.865885727811019 18.702602428936018)"><path d="M-5.68 20.2 C-2.56 25.53, -1.77 31.76, 0.99 37.69 M-5.68 20.2 C-3.94 25.64, -1.66 31.26, 0.99 37.69" stroke="#1e1e1e" stroke-width="1" fill="none"></path></g><g transform="translate(520.4772479552935 486.655392281075) rotate(0 0.865885727811019 18.702602428936018)"><path d="M7.12 20 C6.1 25.36, 2.75 31.66, 0.99 37.69 M7.12 20 C4.92 25.53, 3.24 31.22, 0.99 37.69" stroke="#1e1e1e" stroke-width="1" fill="none"></path></g></g><mask></mask><g stroke-linecap="round"><g transform="translate(811.8008246484292 557.2477354134785) rotate(0 -36.37788881096208 122.99173651451224)"><path d="M-0.61 0.35 C-12.6 41.22, -60.08 204.91, -72.11 245.91 M1.27 -0.51 C-10.8 40.5, -60.25 206.62, -72.72 247.4" stroke="#1e1e1e" stroke-width="1" fill="none"></path></g><g transform="translate(811.8008246484292 557.2477354134785) rotate(0 -36.37788881096208 122.99173651451224)"><path d="M1.03 25.3 C1.01 19.28, -0.18 11.08, -0.61 0.35 M1.03 25.3 C0.24 16.31, 0.92 8.2, -0.61 0.35" stroke="#1e1e1e" stroke-width="1" fill="none"></path></g><g transform="translate(811.8008246484292 557.2477354134785) rotate(0 -36.37788881096208 122.99173651451224)"><path d="M-15.39 20.52 C-10.72 15.94, -7.24 9.1, -0.61 0.35 M-15.39 20.52 C-10.81 13.14, -4.74 6.59, -0.61 0.35" stroke="#1e1e1e" stroke-width="1" fill="none"></path></g><g transform="translate(811.8008246484292 557.2477354134785) rotate(0 -36.37788881096208 122.99173651451224)"><path d="M-74.14 222.44 C-73 230.62, -73.31 236.59, -72.72 247.4 M-74.14 222.44 C-74.25 229.87, -72.56 238.16, -72.72 247.4" stroke="#1e1e1e" stroke-width="1" fill="none"></path></g><g transform="translate(811.8008246484292 557.2477354134785) rotate(0 -36.37788881096208 122.99173651451224)"><path d="M-57.76 227.37 C-61.3 234.06, -66.27 238.64, -72.72 247.4 M-57.76 227.37 C-63.22 233.15, -66.92 239.82, -72.72 247.4" stroke="#1e1e1e" stroke-width="1" fill="none"></path></g></g><mask></mask><g stroke-linecap="round"><g transform="translate(572.889172532025 485.2332284558033) rotate(0 42.986459580662995 154.68903230371495)"><path d="M-0.85 1.15 C13.35 52.4, 70.78 257.38, 85.33 308.63 M0.91 0.7 C15.49 52.6, 73.54 258.3, 87.7 309.78" stroke="#1e1e1e" stroke-width="1" fill="none"></path></g><g transform="translate(572.889172532025 485.2332284558033) rotate(0 42.986459580662995 154.68903230371495)"><path d="M13.72 21.47 C10.92 13.98, 3.24 9.47, -0.85 1.15 M13.72 21.47 C9.91 16.96, 7.3 11.11, -0.85 1.15" stroke="#1e1e1e" stroke-width="1" fill="none"></path></g><g transform="translate(572.889172532025 485.2332284558033) rotate(0 42.986459580662995 154.68903230371495)"><path d="M-2.75 26.07 C-0.49 17.28, -3.05 11.34, -0.85 1.15 M-2.75 26.07 C-2.65 20.58, -1.34 13.64, -0.85 1.15" stroke="#1e1e1e" stroke-width="1" fill="none"></path></g><g transform="translate(572.889172532025 485.2332284558033) rotate(0 42.986459580662995 154.68903230371495)"><path d="M73.15 289.45 C79.76 294.78, 81.12 302.87, 87.7 309.78 M73.15 289.45 C76.36 294.81, 80.68 298.64, 87.7 309.78" stroke="#1e1e1e" stroke-width="1" fill="none"></path></g><g transform="translate(572.889172532025 485.2332284558033) rotate(0 42.986459580662995 154.68903230371495)"><path d="M89.62 284.85 C91.17 291.49, 87.42 301.01, 87.7 309.78 M89.62 284.85 C88.92 291.2, 89.32 296.11, 87.7 309.78" stroke="#1e1e1e" stroke-width="1" fill="none"></path></g></g><mask></mask><g stroke-linecap="round"><g transform="translate(893.7183207795542 558.462417239409) rotate(0 63.75658237132757 108.50353481823333)"><path d="M-1.18 0.11 C20.09 36.07, 106.33 180.03, 127.81 216.12 M0.41 -0.88 C21.52 35.18, 105.91 180.74, 127.02 217.19" stroke="#1e1e1e" stroke-width="1" fill="none"></path></g><g transform="translate(893.7183207795542 558.462417239409) rotate(0 63.75658237132757 108.50353481823333)"><path d="M107.84 201.15 C114.16 206.93, 118.59 211.88, 127.02 217.19 M107.84 201.15 C112.84 205.27, 118.9 210.39, 127.02 217.19" stroke="#1e1e1e" stroke-width="1" fill="none"></path></g><g transform="translate(893.7183207795542 558.462417239409) rotate(0 63.75658237132757 108.50353481823333)"><path d="M122.63 192.57 C124.28 200.93, 124.01 208.61, 127.02 217.19 M122.63 192.57 C123.61 199.06, 125.67 206.5, 127.02 217.19" stroke="#1e1e1e" stroke-width="1" fill="none"></path></g></g><mask></mask><g stroke-linecap="round"><g transform="translate(985.0328201540301 801.9424287347208) rotate(0 -200.31513677389012 -173.05959215118116)"><path d="M0.01 0.93 C-66.54 -56.92, -333.38 -288.3, -400.01 -346.01 M-1.45 0.37 C-68.03 -56.75, -334.19 -286.48, -400.63 -344.41" stroke="#1e1e1e" stroke-width="1" fill="none"></path></g><g transform="translate(985.0328201540301 801.9424287347208) rotate(0 -200.31513677389012 -173.05959215118116)"><path d="M-377.28 -335.49 C-381.34 -336.56, -388.24 -338.26, -400.63 -344.41 M-377.28 -335.49 C-385.48 -339.4, -393.99 -341.28, -400.63 -344.41" stroke="#1e1e1e" stroke-width="1" fill="none"></path></g><g transform="translate(985.0328201540301 801.9424287347208) rotate(0 -200.31513677389012 -173.05959215118116)"><path d="M-388.48 -322.56 C-390.01 -326.7, -394.25 -331.46, -400.63 -344.41 M-388.48 -322.56 C-392.65 -331.3, -397.03 -337.94, -400.63 -344.41" stroke="#1e1e1e" stroke-width="1" fill="none"></path></g></g><mask></mask><g stroke-linecap="round"><g transform="translate(902.1923257499293 453.88774795236486) rotate(0 83.38291792583959 -66.1515848389551)"><path d="M-0.62 -1.11 C26.98 -23.22, 138.21 -110.26, 166.16 -131.96 M1.25 0.93 C29.21 -21.63, 141.02 -111.57, 168.56 -133.9" stroke="#1e1e1e" stroke-width="1" fill="none"></path></g><g transform="translate(902.1923257499293 453.88774795236486) rotate(0 83.38291792583959 -66.1515848389551)"><path d="M155.65 -112.49 C158.12 -120.81, 164.99 -126.67, 168.56 -133.9 M155.65 -112.49 C160.93 -121.37, 165.91 -129.9, 168.56 -133.9" stroke="#1e1e1e" stroke-width="1" fill="none"></path></g><g transform="translate(902.1923257499293 453.88774795236486) rotate(0 83.38291792583959 -66.1515848389551)"><path d="M144.91 -125.8 C151.17 -129.47, 161.73 -130.75, 168.56 -133.9 M144.91 -125.8 C154.31 -129.61, 163.43 -133.01, 168.56 -133.9" stroke="#1e1e1e" stroke-width="1" fill="none"></path></g></g><mask></mask><g stroke-linecap="round"><g transform="translate(585.0592864182177 383.7591736626209) rotate(0 235.93827034529613 -70.16193108269599)"><path d="M-0.84 -0.21 C77.55 -23.6, 391.97 -117.86, 470.89 -141.14 M0.92 -1.37 C79.62 -24.55, 394.52 -116.59, 473.09 -140.02" stroke="#1e1e1e" stroke-width="1" fill="none"></path></g><g transform="translate(585.0592864182177 383.7591736626209) rotate(0 235.93827034529613 -70.16193108269599)"><path d="M452.97 -125.18 C459.74 -131.86, 465.76 -134.05, 473.09 -140.02 M452.97 -125.18 C460.04 -130.28, 465.97 -135.19, 473.09 -140.02" stroke="#1e1e1e" stroke-width="1" fill="none"></path></g><g transform="translate(585.0592864182177 383.7591736626209) rotate(0 235.93827034529613 -70.16193108269599)"><path d="M448.14 -141.58 C456.48 -142.5, 464.18 -138.97, 473.09 -140.02 M448.14 -141.58 C456.75 -141.13, 464.32 -140.49, 473.09 -140.02" stroke="#1e1e1e" stroke-width="1" fill="none"></path></g></g><mask></mask><g stroke-linecap="round" transform="translate(1053.8733630875481 426.6745112167705) rotate(0 99.24046400957855 107.6699009473748)"><path d="M32 0 C65.32 0.23, 99.55 -2.31, 166.48 0 M32 0 C78.92 0.56, 126.15 0.44, 166.48 0 M166.48 0 C186.71 -0.8, 198.99 10.12, 198.48 32 M166.48 0 C189.31 -0.57, 197.56 10.59, 198.48 32 M198.48 32 C197.91 72.62, 197.08 112.58, 198.48 183.34 M198.48 32 C196.61 61.89, 197.94 93.42, 198.48 183.34 M198.48 183.34 C198.92 206.05, 187.18 213.39, 166.48 215.34 M198.48 183.34 C196.42 203.69, 187.25 213.21, 166.48 215.34 M166.48 215.34 C116.32 214.63, 68.07 215.24, 32 215.34 M166.48 215.34 C125.03 214.02, 83.38 213.88, 32 215.34 M32 215.34 C9.74 213.56, 1.71 202.67, 0 183.34 M32 215.34 C11.37 213.49, -1 205.3, 0 183.34 M0 183.34 C-0.3 145.91, -3.33 109.26, 0 32 M0 183.34 C-0.02 147.95, 1.27 114.14, 0 32 M0 32 C-0.9 8.69, 10.61 -0.8, 32 0 M0 32 C1.27 12.56, 11.7 -1.14, 32 0" stroke="#1e1e1e" stroke-width="1" fill="none"></path></g><g transform="translate(1076.0563863318293 397.6536465401043) rotate(0 20.29998779296875 12.5)"><text x="0" y="17.52" font-family="Virgil, Segoe UI Emoji" font-size="20px" fill="#1e1e1e" text-anchor="start" style="white-space: pre;" direction="ltr" dominant-baseline="alphabetic">EC2</text></g><g stroke-linecap="round"><g transform="translate(910.4409546740035 498.13785449885495) rotate(0 78.29111140247574 -1.7321013932824485)"><path d="M-0.8 -0.39 C25.22 -1.06, 129.7 -3.7, 155.88 -4.23 M0.98 -1.64 C27.42 -2.16, 132.5 -2.98, 158.22 -3.09" stroke="#1e1e1e" stroke-width="1" fill="none"></path></g><g transform="translate(910.4409546740035 498.13785449885495) rotate(0 78.29111140247574 -1.7321013932824485)"><path d="M134.79 5.61 C140.64 2.18, 146.51 0.41, 158.22 -3.09 M134.79 5.61 C140.69 3.74, 148.62 -0.04, 158.22 -3.09" stroke="#1e1e1e" stroke-width="1" fill="none"></path></g><g transform="translate(910.4409546740035 498.13785449885495) rotate(0 78.29111140247574 -1.7321013932824485)"><path d="M134.67 -11.49 C140.53 -10.18, 146.44 -7.21, 158.22 -3.09 M134.67 -11.49 C140.55 -8.42, 148.52 -7.25, 158.22 -3.09" stroke="#1e1e1e" stroke-width="1" fill="none"></path></g></g><mask></mask><g stroke-linecap="round" transform="translate(1072.7720479887848 446.36361275785475) rotate(0 78.33401347767585 45.6555994498745)"><path d="M22.83 0 C55.65 0.38, 89.6 0.04, 133.84 0 M22.83 0 C54.27 0.16, 84.63 -0.63, 133.84 0 M133.84 0 C151.03 1.52, 155.16 7.45, 156.67 22.83 M133.84 0 C150.23 -1.06, 157.62 7.72, 156.67 22.83 M156.67 22.83 C156.39 39.44, 157.92 56.55, 156.67 68.48 M156.67 22.83 C156.71 37.69, 155.54 50.57, 156.67 68.48 M156.67 68.48 C158.55 83.01, 149.48 89.38, 133.84 91.31 M156.67 68.48 C156.49 84.15, 150.53 90.49, 133.84 91.31 M133.84 91.31 C106.48 90.66, 81.34 92.51, 22.83 91.31 M133.84 91.31 C90.71 90.78, 45.33 90.47, 22.83 91.31 M22.83 91.31 C8.89 91.73, -0.04 84.44, 0 68.48 M22.83 91.31 C8.66 91.36, 2.25 85.69, 0 68.48 M0 68.48 C2.32 56.19, 0.72 41.54, 0 22.83 M0 68.48 C-0.07 58.31, -0.56 48.48, 0 22.83 M0 22.83 C-1.06 5.91, 8.05 0.45, 22.83 0 M0 22.83 C1.28 7.51, 7.87 -1.61, 22.83 0" stroke="#1e1e1e" stroke-width="1" fill="none"></path></g><g transform="translate(1108.6460852701716 467.0192122077292) rotate(0 42.45997619628906 25)"><text x="42.45997619628906" y="17.52" font-family="Virgil, Segoe UI Emoji" font-size="20px" fill="#1e1e1e" text-anchor="middle" style="white-space: pre;" direction="ltr" dominant-baseline="alphabetic">DOCKER</text><text x="42.45997619628906" y="42.519999999999996" font-family="Virgil, Segoe UI Emoji" font-size="20px" fill="#1e1e1e" text-anchor="middle" style="white-space: pre;" direction="ltr" dominant-baseline="alphabetic">DAEMON</text></g><g stroke-linecap="round" transform="translate(1075.6090850630244 550.4477114628348) rotate(0 76.30136552295744 37.60639551294048)"><path d="M18.8 0 C59.97 0.03, 105.1 -0.35, 133.8 0 M18.8 0 C45.68 -0.98, 73.49 -0.34, 133.8 0 M133.8 0 C146.16 1.81, 152.61 6.99, 152.6 18.8 M133.8 0 C147.62 1.84, 154.01 4.33, 152.6 18.8 M152.6 18.8 C154.13 29.64, 153.56 43.58, 152.6 56.41 M152.6 18.8 C153.3 29.94, 151.9 41.03, 152.6 56.41 M152.6 56.41 C151.77 69.12, 145.77 76.46, 133.8 75.21 M152.6 56.41 C152.81 68.38, 145.52 72.99, 133.8 75.21 M133.8 75.21 C103.5 75.66, 75.1 74.42, 18.8 75.21 M133.8 75.21 C89.04 75.84, 43.71 75.46, 18.8 75.21 M18.8 75.21 C4.54 75.77, 0.88 68.79, 0 56.41 M18.8 75.21 C7.85 72.95, -2.02 68.55, 0 56.41 M0 56.41 C1.13 48.26, -0.59 36.29, 0 18.8 M0 56.41 C0.49 47.36, 0.78 37.41, 0 18.8 M0 18.8 C1.71 5.9, 6.2 0.93, 18.8 0 M0 18.8 C-2.02 7.88, 4.59 1.37, 18.8 0" stroke="#1e1e1e" stroke-width="1" fill="none"></path></g><g transform="translate(1100.7004972778764 563.0541069757753) rotate(0 51.20995330810547 25)"><text x="51.20995330810547" y="17.52" font-family="Virgil, Segoe UI Emoji" font-size="20px" fill="#1e1e1e" text-anchor="middle" style="white-space: pre;" direction="ltr" dominant-baseline="alphabetic">ephemeral </text><text x="51.20995330810547" y="42.519999999999996" font-family="Virgil, Segoe UI Emoji" font-size="20px" fill="#1e1e1e" text-anchor="middle" style="white-space: pre;" direction="ltr" dominant-baseline="alphabetic">previews</text></g><g stroke-linecap="round"><g transform="translate(1347.4666619443606 575.1984617747753) rotate(0 -59.21800330597853 2.012111670434251)"><path d="M0.46 1.08 C-19.45 1.45, -98.68 2.46, -118.47 2.98 M-0.75 0.61 C-20.91 1.02, -99.74 3.13, -119.44 3.97" stroke="#1e1e1e" stroke-width="1" fill="none"></path></g><g transform="translate(1347.4666619443606 575.1984617747753) rotate(0 -59.21800330597853 2.012111670434251)"><path d="M-96.24 -5.36 C-103.28 -1.75, -115.72 2.16, -119.44 3.97 M-96.24 -5.36 C-103.61 -3.11, -111.7 1.37, -119.44 3.97" stroke="#1e1e1e" stroke-width="1" fill="none"></path></g><g transform="translate(1347.4666619443606 575.1984617747753) rotate(0 -59.21800330597853 2.012111670434251)"><path d="M-95.67 11.73 C-103.03 8.79, -115.7 6.14, -119.44 3.97 M-95.67 11.73 C-103.29 8.56, -111.56 7.62, -119.44 3.97" stroke="#1e1e1e" stroke-width="1" fill="none"></path></g></g><mask></mask><g transform="translate(1374.287961780863 569.6123681322488) rotate(0 38.89997863769531 12.5)"><text x="0" y="17.52" font-family="Virgil, Segoe UI Emoji" font-size="20px" fill="#1e1e1e" text-anchor="start" style="white-space: pre;" direction="ltr" dominant-baseline="alphabetic">PUBLIC</text></g></svg>